<?xml version="1.0" encoding="iso-8859-1"?>
<!-- Generator: Adobe Illustrator 19.0.0, SVG Export Plug-In . SVG Version: 6.00 Build 0)  -->
<svg version="1.1" id="Capa_1" xmlns="http://www.w3.org/2000/svg" xmlns:xlink="http://www.w3.org/1999/xlink" x="0px" y="0px"
	 viewBox="0 0 508.248 508.248" style="enable-background:new 0 0 508.248 508.248;" xml:space="preserve">
<g>
	<path style="fill:#428DFF;" d="M136.559,508.247c-50.505-0.053-96.018-30.49-115.357-77.146s-8.705-100.366,26.953-136.133
		l268.74-268.74c36.471-36.471,93.231-34.712,132.01,4.067c38.788,38.788,40.538,95.538,4.077,132.01L200.52,414.766
		c-21.863,21.682-57.141,21.609-78.914-0.163c-21.773-21.773-21.846-57.051-0.163-78.914L292.463,164.67
		c3.845-3.845,10.078-3.845,13.923,0c3.845,3.845,3.845,10.078,0,13.923L135.366,349.612c-14.147,14.147-14.147,37.084,0,51.231
		c14.147,14.147,37.084,14.147,51.231,0l252.462-252.462c28.519-28.529,26.769-73.317-4.077-104.163
		c-30.856-30.837-75.635-32.587-104.163-4.067L62.078,308.892c-40.933,41.166-40.839,107.691,0.211,148.741
		c41.05,41.05,107.575,41.144,148.741,0.21l268.74-268.74c3.845-3.845,10.078-3.845,13.923,0c3.845,3.845,3.845,10.079,0,13.923
		l-268.74,268.74C201.545,495.247,169.714,508.383,136.559,508.247z"/>
</g>
<g>
</g>
<g>
</g>
<g>
</g>
<g>
</g>
<g>
</g>
<g>
</g>
<g>
</g>
<g>
</g>
<g>
</g>
<g>
</g>
<g>
</g>
<g>
</g>
<g>
</g>
<g>
</g>
<g>
</g>
</svg>
